<?xml version="1.0" standalone="no"?>
<!DOCTYPE svg PUBLIC "-//W3C//DTD SVG 20010904//EN"
 "http://www.w3.org/TR/2001/REC-SVG-20010904/DTD/svg10.dtd">
<svg version="1.0" xmlns="http://www.w3.org/2000/svg"
 width="1024.000000pt" height="1024.000000pt" viewBox="0 0 1024.000000 1024.000000"
 preserveAspectRatio="xMidYMid meet">

<g transform="translate(0.000000,1024.000000) scale(0.100000,-0.100000)"
fill="#000000" stroke="none">
<path d="M3005 9500 c-353 -76 -720 -316 -979 -640 -117 -147 -244 -377 -307
-560 -42 -118 -83 -339 -73 -392 2 -16 -6 -18 -64 -18 -160 0 -312 -83 -389
-212 -39 -64 -73 -190 -73 -267 1 -234 168 -446 387 -491 72 -15 203 -8 268
15 216 76 345 275 333 513 -5 81 -10 102 -41 165 -20 40 -54 92 -77 117 l-41
44 58 59 c136 139 387 358 397 346 2 -2 -3 -44 -11 -94 -7 -49 -12 -138 -11
-196 l3 -106 -43 -49 c-50 -58 -81 -134 -89 -218 -4 -49 0 -76 20 -136 13 -41
27 -107 30 -146 3 -41 15 -90 27 -117 53 -113 188 -186 319 -173 l67 7 -4 -38
c-1 -21 1 -65 5 -98 l9 -60 44 2 c25 1 134 7 242 13 109 6 218 8 243 5 l45 -7
0 -1233 c0 -783 -4 -1252 -10 -1286 -28 -149 -123 -257 -298 -340 -59 -27
-123 -58 -142 -67 l-35 -17 0 -171 c0 -130 3 -175 14 -187 12 -16 105 -17
1138 -17 l1124 0 85 133 c47 72 158 247 248 387 210 329 295 450 317 450 13 0
4 -24 -38 -100 -75 -138 -103 -243 -118 -445 -11 -151 -26 -300 -40 -398 -20
-143 -7 -165 85 -141 146 39 508 151 581 180 48 19 89 34 93 34 3 0 17 -21 30
-47 28 -56 97 -152 171 -238 28 -33 70 -86 93 -117 45 -61 70 -75 101 -59 10
6 52 73 91 148 40 76 97 182 127 235 l53 97 56 -25 c67 -29 364 -128 527 -175
110 -31 120 -32 145 -18 36 20 38 48 13 227 -11 81 -23 185 -27 231 -6 79 -5
84 12 76 58 -24 143 -45 217 -55 97 -13 204 -4 402 35 66 13 179 27 250 31 72
3 140 10 153 15 33 13 28 53 -17 123 -21 34 -80 129 -131 211 -145 234 -241
346 -370 429 -89 58 -172 93 -239 102 -29 4 -49 10 -44 13 4 3 37 42 73 86 36
44 95 115 132 159 58 67 68 84 68 116 0 21 -6 42 -12 48 -7 6 -86 32 -175 58
-90 26 -163 50 -163 53 0 3 33 35 73 71 41 36 99 97 130 135 71 86 169 281
197 390 22 85 24 106 41 390 6 98 17 215 25 260 8 44 14 83 14 87 0 15 -33 38
-55 38 -14 0 -134 -36 -267 -81 -373 -123 -543 -214 -704 -377 -114 -115 -205
-256 -243 -374 -15 -46 -26 -48 -47 -5 -9 17 -53 92 -97 165 -59 97 -78 137
-71 148 5 7 158 239 339 514 182 276 451 684 599 908 148 224 275 421 284 439
31 65 41 63 -352 63 l-354 0 -73 -115 c-41 -63 -142 -219 -226 -347 -232 -356
-573 -880 -653 -1003 -139 -216 -482 -731 -508 -763 l-27 -34 -80 35 c-93 41
-221 80 -338 102 -45 9 -135 27 -201 40 -133 28 -167 30 -184 13 -29 -29 -10
-96 110 -383 46 -110 149 -298 169 -311 24 -15 -1 -30 -123 -74 -71 -26 -108
-55 -108 -84 0 -14 33 -62 85 -123 l85 -101 -112 -171 c-62 -94 -180 -274
-263 -401 -328 -505 -407 -625 -413 -632 -4 -4 -5 235 -2 530 3 295 6 1178 8
1962 1 783 6 1427 10 1431 4 4 84 41 179 83 280 124 359 179 414 291 22 46 32
82 36 137 5 67 3 82 -21 133 -15 32 -26 75 -26 99 0 67 -18 111 -65 164 -71
79 -130 106 -271 127 -35 5 -46 14 -95 78 -112 147 -287 312 -448 421 -179
122 -496 257 -721 307 -140 31 -365 35 -485 9z m1866 -987 c66 -30 94 -73 94
-148 1 -44 6 -69 23 -95 31 -49 37 -107 17 -158 -45 -111 -241 -218 -771 -421
-424 -161 -664 -255 -1094 -427 -482 -193 -518 -203 -605 -169 -27 10 -56 31
-73 53 -24 31 -27 45 -29 115 -1 58 -6 84 -18 97 -41 45 -55 139 -33 212 38
127 259 259 808 483 518 211 1052 404 1221 441 226 49 377 54 460 17z m-3114
-773 c183 -83 268 -272 207 -460 -69 -214 -355 -308 -552 -180 -186 120 -227
395 -81 554 110 121 274 154 426 86z m6353 -1277 c0 -10 -69 -102 -129 -172
-84 -99 -185 -228 -249 -317 -34 -49 -121 -172 -193 -274 -141 -200 -210 -290
-221 -290 -9 0 5 48 27 90 24 46 180 281 283 425 106 149 177 237 308 385 116
130 174 182 174 153z m-335 -97 c9 -13 18 -53 22 -88 5 -56 2 -72 -17 -112
-27 -52 -38 -59 -33 -18 3 15 0 61 -5 102 -10 78 -6 140 9 140 5 0 16 -11 24
-24z m-167 -198 c33 -66 38 -141 13 -203 -18 -46 -20 -48 -21 -19 0 17 -11 68
-25 114 -26 86 -30 116 -19 145 10 25 27 13 52 -37z m481 -62 c9 -11 2 -19
-41 -40 -40 -20 -67 -26 -119 -26 -99 0 -100 22 -2 60 58 23 146 26 162 6z
m-645 -78 c49 -65 68 -180 44 -258 -14 -43 -28 -53 -28 -19 0 11 -16 67 -35
125 -53 157 -43 234 19 152z m555 -134 c10 -10 -13 -37 -44 -50 -49 -20 -180
-37 -228 -28 -39 6 -40 7 -21 21 32 25 104 54 153 63 41 8 130 4 140 -6z
m-685 -96 c24 -40 38 -124 31 -188 -4 -33 -10 -62 -14 -65 -5 -2 -27 35 -50
83 -29 63 -41 100 -41 133 0 25 3 49 7 52 14 15 53 6 67 -15z m515 -129 c17
-6 31 -17 31 -25 0 -15 -57 -47 -104 -58 -31 -8 -205 11 -219 24 -13 11 25 37
78 53 59 18 169 21 214 6z m-1130 -816 c33 -41 36 -68 11 -108 -18 -30 -27
-35 -59 -35 -47 0 -77 21 -92 67 -11 36 -11 38 24 70 46 42 87 44 116 6z
m-187 -130 c53 -51 23 -133 -49 -133 -71 0 -109 86 -61 137 30 32 74 30 110
-4z m378 -3 c29 -29 27 -84 -5 -115 -47 -48 -116 -20 -131 52 -13 66 87 112
136 63z m-197 -82 c15 -23 -1 -67 -28 -80 -40 -18 -75 3 -75 44 0 18 4 38 8
44 17 26 77 21 95 -8z m108 -103 c78 -41 52 -156 -36 -155 -74 1 -113 93 -60
145 28 29 54 31 96 10z m-216 -20 c32 -31 34 -93 5 -120 -31 -28 -79 -24 -107
9 -67 78 30 184 102 111z m1116 -222 c12 -16 12 -17 -1 -7 -8 6 -22 14 -30 17
-13 5 -12 6 1 6 9 1 23 -7 30 -16z m-24 -25 c-3 -8 -6 -5 -6 6 -1 11 2 17 5
13 3 -3 4 -12 1 -19z m-1040 -900 c-3 -8 -6 -5 -6 6 -1 11 2 17 5 13 3 -3 4
-12 1 -19z"/>
<path d="M5442 8040 c-214 -56 -396 -216 -502 -443 -56 -120 -73 -199 -73
-342 1 -240 76 -433 232 -599 303 -320 741 -312 1065 19 180 183 261 468 210
735 -34 182 -103 311 -234 442 -72 72 -103 94 -181 132 -52 25 -123 52 -159
60 -92 22 -266 20 -358 -4z m323 -453 c106 -54 172 -160 182 -291 7 -88 -8
-159 -50 -239 -57 -108 -141 -157 -272 -157 -133 0 -233 72 -287 208 -31 79
-31 213 1 294 41 105 123 186 214 209 59 15 158 4 212 -24z"/>
<path d="M7726 3087 c-16 -28 -47 -78 -68 -109 -21 -31 -38 -59 -38 -62 0 -4
35 -6 78 -6 l79 0 101 109 c56 60 102 112 102 115 0 3 -51 6 -112 6 l-113 0
-29 -53z"/>
<path d="M6171 2840 c-89 -19 -182 -81 -225 -149 -52 -83 -59 -122 -64 -357
-4 -237 3 -296 50 -392 31 -65 108 -136 175 -163 80 -32 261 -34 342 -4 121
45 207 168 218 311 l6 74 -110 0 -110 0 -5 -43 c-8 -68 -35 -115 -85 -144 -38
-22 -52 -25 -98 -20 -70 7 -103 30 -131 92 -22 47 -24 61 -24 250 0 115 5 217
11 240 6 22 28 56 48 76 96 96 242 43 271 -97 l12 -56 41 6 c23 3 71 9 106 13
l63 6 -5 60 c-7 78 -55 175 -109 222 -61 52 -136 77 -243 81 -49 2 -110 -1
-134 -6z"/>
<path d="M7587 2840 c-59 -11 -130 -44 -174 -83 -47 -41 -78 -99 -103 -190
-20 -72 -21 -98 -18 -300 4 -205 6 -227 28 -284 51 -134 167 -219 313 -230
144 -11 258 28 341 117 96 102 120 191 120 435 1 192 -11 261 -57 353 -30 62
-115 136 -184 162 -65 24 -191 34 -266 20z m183 -208 c25 -13 44 -35 65 -78
l30 -59 0 -200 c-1 -193 -2 -202 -26 -249 -64 -127 -244 -125 -303 3 -18 40
-21 69 -24 216 -6 258 6 308 87 362 43 29 121 31 171 5z"/>
<path d="M1490 2305 l0 -525 115 0 115 0 0 205 0 205 135 0 135 0 0 100 0 100
-135 0 -135 0 0 120 0 120 165 0 165 0 0 100 0 100 -280 0 -280 0 0 -525z"/>
<path d="M2200 2452 c0 -486 6 -519 108 -614 69 -65 158 -92 280 -86 149 7
253 72 308 190 l29 63 3 413 3 412 -105 0 -105 0 -3 -382 c-3 -360 -4 -385
-23 -423 -26 -53 -74 -77 -138 -72 -64 6 -98 32 -119 93 -15 43 -17 97 -18
417 l0 367 -110 0 -110 0 0 -378z"/>
<path d="M3140 2305 l0 -525 105 0 105 0 2 311 3 312 158 -312 158 -311 105 0
104 0 0 525 0 525 -106 0 -107 0 5 -315 c3 -173 2 -315 -1 -315 -3 1 -76 142
-161 315 l-155 314 -107 0 -108 1 0 -525z"/>
<path d="M4100 2305 l0 -525 193 0 c203 0 281 11 357 50 136 69 205 205 216
425 13 263 -73 455 -239 530 -70 32 -177 45 -368 45 l-159 0 0 -525z m385 314
c22 -6 56 -28 76 -48 53 -52 69 -116 69 -267 0 -195 -24 -265 -105 -311 -32
-18 -56 -23 -122 -23 l-83 0 0 330 0 330 63 0 c34 0 80 -5 102 -11z"/>
<path d="M5219 2788 c-6 -24 -37 -131 -69 -238 -64 -213 -203 -698 -214 -743
l-7 -28 113 3 112 3 26 95 25 95 150 0 150 0 25 -97 25 -98 117 0 c65 0 118 1
118 3 0 1 -7 25 -16 52 -31 99 -249 836 -278 938 l-17 57 -124 0 -124 0 -12
-42z m188 -420 c24 -100 43 -188 43 -195 0 -10 -25 -13 -100 -13 -60 0 -100 4
-100 10 0 10 58 238 86 339 8 29 18 50 21 47 4 -4 26 -88 50 -188z"/>
<path d="M6870 2305 l0 -525 110 0 110 0 0 525 0 525 -110 0 -110 0 0 -525z"/>
<path d="M8260 2305 l0 -525 105 0 105 0 0 308 c1 278 2 305 16 287 8 -11 80
-149 160 -307 l144 -288 105 0 105 0 0 525 0 526 -102 -3 -103 -3 1 -318 c0
-175 -3 -314 -7 -310 -4 4 -78 149 -165 321 l-158 312 -103 0 -103 0 0 -525z"/>
</g>
</svg>
